<svg width="155" height="93" viewBox="0 0 155 93" fill="none" xmlns="http://www.w3.org/2000/svg">
<path d="M56.2677 21.3071C56.0219 21.5355 55.7787 21.767 55.5381 22.0017L55.7557 22.2247L55.896 22.365L55.5425 22.7186L56.2681 23.4442L56.6217 23.0906L57.3473 23.8163L56.9937 24.1698L57.7193 24.8954L58.0729 24.5419L58.7985 25.2675L58.4449 25.621L59.1706 26.3466L59.5241 25.9931L60.2497 26.7187L59.8962 27.0723L60.6218 27.7979L60.9753 27.4443L61.7009 28.1699L61.3474 28.5235L62.073 29.2491L62.4266 28.8955L63.1522 29.6212L62.7986 29.9747L63.5242 30.7003L63.8778 30.3468L64.6034 31.0724L64.2498 31.4259L64.9755 32.1515L65.329 31.798L66.0546 32.5236L65.7011 32.8772L66.4267 33.6028L66.7802 33.2492L66.793 33.262C66.7999 33.2554 66.8068 33.2488 66.8137 33.2422L67.1597 33.6031C67.4094 33.3637 67.6637 33.1299 67.9225 32.9018L67.592 32.5267C67.8567 32.2935 68.126 32.0661 68.3997 31.8446L68.7142 32.2334C68.983 32.0159 69.256 31.8044 69.5332 31.5988L69.2354 31.1972C69.5187 30.9871 69.8061 30.7831 70.0976 30.5854L70.3783 30.9992C70.6643 30.8052 70.9542 30.6173 71.2478 30.4357L70.9848 30.0105C71.2846 29.825 71.5881 29.6459 71.8953 29.4733L72.1403 29.9093C72.4414 29.74 72.7461 29.5772 73.054 29.4208L72.8277 28.975C73.1418 28.8155 73.4594 28.6625 73.7802 28.5163L73.9876 28.9712C74.3017 28.828 74.619 28.6913 74.9392 28.5613L74.7511 28.0981C75.0774 27.9656 75.4067 27.8399 75.7388 27.721L75.9072 28.1918C76.2322 28.0756 76.5598 27.966 76.8899 27.8634L76.7414 27.3859C77.0776 27.2814 77.4162 27.1838 77.7573 27.0933L77.8855 27.5765C78.219 27.488 78.5546 27.4064 78.8924 27.3318L78.7846 26.8436C78.9565 26.8056 79.129 26.7694 79.3019 26.735C79.4749 26.7006 79.6481 26.668 79.8215 26.6373L79.9087 27.1297C80.2493 27.0693 80.5907 27.0163 80.9326 26.9704L80.8661 26.4749C81.2158 26.428 81.5661 26.3885 81.9167 26.3565L81.9622 26.8544C82.3065 26.8229 82.6511 26.7988 82.9957 26.7818L82.9712 26.2824C83.3235 26.2651 83.6758 26.2552 84.028 26.2528L84.0315 26.7528C84.3771 26.7503 84.7225 26.7552 85.0675 26.7673L85.0851 26.2676C85.4374 26.28 85.7893 26.2997 86.1406 26.3269L86.1021 26.8254C86.4464 26.852 86.7902 26.8859 87.1332 26.927L87.1927 26.4305C87.5425 26.4724 87.8915 26.5217 88.2395 26.5783L88.1592 27.0718C88.5 27.1272 88.8397 27.1899 89.1781 27.2597L89.2791 26.77C89.6241 26.8411 89.9677 26.9195 90.3098 27.0052L90.1883 27.4902C90.5231 27.5741 90.8563 27.665 91.1879 27.7631L91.3297 27.2836C91.6672 27.3834 92.0031 27.4904 92.3369 27.6046L92.1751 28.0777C92.5015 28.1894 92.8259 28.308 93.1482 28.4336L93.3298 27.9678C93.4938 28.0317 93.6574 28.0975 93.8203 28.1649C93.9832 28.2324 94.1453 28.3016 94.3066 28.3724L94.1055 28.8302C94.4223 28.9692 94.7356 29.1148 95.0453 29.2666L95.2654 28.8177C95.5822 28.973 95.8953 29.1348 96.2047 29.3029L95.9659 29.7422C96.2696 29.9073 96.5696 30.0786 96.8656 30.256L97.1226 29.8272C97.4251 30.0085 97.7236 30.196 98.0178 30.3896L97.7429 30.8073C98.0316 30.9973 98.3161 31.1932 98.5963 31.395L98.8885 30.9893C99.1745 31.1953 99.4561 31.4072 99.7332 31.625L99.4242 32.018C99.6957 32.2315 99.9628 32.4507 100.225 32.6754L100.55 32.2956C100.818 32.5248 101.081 32.7597 101.339 33.0001L100.998 33.3658C101.25 33.6012 101.498 33.842 101.741 34.0881L102.097 33.737C102.344 33.9878 102.586 34.2439 102.823 34.5053L102.452 34.841C102.684 35.0967 102.911 35.3575 103.132 35.6232L103.516 35.3033C103.741 35.5739 103.961 35.8494 104.175 36.1298L103.778 36.4333C103.987 36.7075 104.191 36.9864 104.389 37.2699L104.799 36.9834C104.9 37.1277 104.999 37.2732 105.097 37.4199C105.195 37.5665 105.292 37.714 105.387 37.8625L104.965 38.1315C105.151 38.423 105.331 38.7181 105.504 39.0164L105.936 38.7654C106.114 39.0706 106.284 39.3791 106.448 39.6907L106.005 39.9233C106.166 40.2293 106.32 40.5384 106.468 40.8504L106.92 40.6366C107.071 40.9554 107.214 41.2772 107.352 41.6016L106.891 41.7962C107.025 42.1145 107.153 42.4355 107.274 42.7589L107.742 42.5839C107.866 42.9141 107.982 43.2468 108.092 43.5818L107.616 43.7369C107.723 44.0653 107.824 44.3959 107.917 44.7285L108.398 44.5934C108.494 44.9327 108.582 45.274 108.662 45.6171L108.176 45.7318C108.255 46.0678 108.327 46.4057 108.392 46.7451L108.883 46.6509C108.95 46.9969 109.009 47.3444 109.06 47.6932L108.566 47.7666C108.616 48.1079 108.66 48.4506 108.696 48.7944L109.193 48.742C109.23 49.092 109.26 49.4433 109.282 49.7954L108.783 49.8269C108.805 50.1712 108.82 50.5164 108.827 50.8622L109.327 50.8517C109.327 50.8612 109.327 50.8707 109.327 50.8803H109.345V51.3803H110.372V50.8803H111.398V51.3803H112.424V50.8803H113.45V51.3803H114.476V50.8803H115.502V51.3803H116.529V50.8803H117.555V51.3803H118.581V50.8803H119.607V51.3803H120.633V50.8803H121.659V51.3803H122.686V50.8803H123.712V51.3803H124.738V50.8803H124.936L125.248 50.8765C125.244 50.5404 125.236 50.2047 125.223 49.8695L124.724 49.8879C124.711 49.5561 124.695 49.2247 124.675 48.8938L125.174 48.8632C125.153 48.5278 125.128 48.1928 125.1 47.8585L124.602 47.9014C124.573 47.5707 124.541 47.2406 124.504 46.9111L125.001 46.856C124.964 46.522 124.923 46.1887 124.878 45.8561L124.382 45.9234C124.338 45.5945 124.289 45.2664 124.236 44.939L124.73 44.8596C124.676 44.5279 124.619 44.1971 124.558 43.8671L124.066 43.9586C124.005 43.6324 123.941 43.307 123.872 42.9825L124.361 42.879C124.291 42.5504 124.218 42.2227 124.14 41.896L123.654 42.0116C123.577 41.6888 123.497 41.367 123.412 41.0463L123.896 40.9188C123.81 40.5941 123.72 40.2704 123.627 39.9479L123.147 40.0872C123.054 39.7686 122.958 39.4511 122.858 39.1349L123.334 38.9839C123.233 38.6638 123.128 38.3449 123.018 38.0273L122.546 38.19C122.438 37.8763 122.326 37.564 122.21 37.253L122.679 37.0788C122.562 36.7641 122.441 36.4508 122.316 36.1389L121.852 36.3246C121.729 36.0166 121.602 35.7101 121.471 35.4051L121.931 35.2081C121.799 34.8996 121.663 34.5926 121.523 34.2872L121.068 34.4954C120.93 34.1939 120.788 33.8941 120.643 33.5958L121.092 33.3765C120.945 33.0749 120.794 32.7749 120.639 32.4766L120.195 32.7069C120.043 32.4126 119.886 32.1201 119.726 31.8293L120.164 31.5882C120.002 31.2942 119.837 31.002 119.668 30.7117L119.236 30.9635C119.069 30.6771 118.898 30.3925 118.724 30.1098L119.15 29.8475C118.974 29.5619 118.794 29.2782 118.611 28.9965L118.192 29.2692C118.101 29.1302 118.01 28.9917 117.918 28.8537C117.825 28.7157 117.732 28.5783 117.639 28.4415L118.051 28.1587C117.861 27.8816 117.667 27.607 117.471 27.3351L117.066 27.628C116.871 27.3589 116.674 27.0925 116.473 26.8286L116.871 26.5259C116.667 26.2584 116.461 25.9937 116.251 25.7317L115.861 26.0441C115.653 25.785 115.443 25.5286 115.229 25.2749L115.612 24.953C115.396 24.6959 115.176 24.4416 114.954 24.1901L114.579 24.5213C114.359 24.2727 114.137 24.0269 113.911 23.784L114.277 23.4437C114.049 23.1976 113.817 22.9544 113.583 22.7141L113.225 23.0633C112.993 22.8258 112.759 22.5912 112.521 22.3596L112.87 22.0018C112.63 21.7672 112.387 21.5356 112.141 21.3071L111.8 21.6734C111.557 21.4476 111.312 21.2249 111.063 21.0052L111.394 20.6306C111.143 20.4081 110.888 20.1888 110.631 19.9726L110.31 20.3552C110.056 20.1416 109.799 19.9311 109.54 19.7239L109.853 19.3335C109.591 19.1237 109.326 18.917 109.059 18.7137L108.756 19.1116C108.492 18.9108 108.225 18.7132 107.956 18.5188L108.249 18.1136C107.977 17.9169 107.703 17.7235 107.426 17.5335L107.143 17.9458C106.869 17.7582 106.594 17.5739 106.315 17.3929L106.588 16.9738C106.307 16.7907 106.023 16.6111 105.737 16.4348L105.475 16.8605C105.192 16.6866 104.908 16.516 104.621 16.3489L104.873 15.9169C104.583 15.7479 104.291 15.5824 103.996 15.4203L103.755 15.8584C103.465 15.6985 103.172 15.5422 102.878 15.3893L103.108 14.9455C102.81 14.7909 102.51 14.6399 102.208 14.4926L101.989 14.9419C101.691 14.7965 101.391 14.6546 101.089 14.5164L101.297 14.0618C100.992 13.9221 100.685 13.786 100.376 13.6536L100.179 14.1132C100.027 14.0478 99.8741 13.9834 99.7208 13.9199C99.5675 13.8564 99.4138 13.7938 99.2598 13.7322L99.4455 13.268C99.1334 13.1432 98.8201 13.0224 98.5057 12.9055L98.3315 13.3741C98.0203 13.2585 97.7079 13.1467 97.3944 13.0388L97.5571 12.566C97.2393 12.4567 96.9204 12.3514 96.6005 12.25L96.4495 12.7267C96.1331 12.6264 95.8157 12.5302 95.4973 12.4378L95.6365 11.9576C95.3138 11.864 94.9901 11.7745 94.6656 11.6889L94.5381 12.1724C94.2172 12.0878 93.8954 12.0072 93.5728 11.9306L93.6884 11.4441C93.3615 11.3665 93.0339 11.2929 92.7055 11.2234L92.6019 11.7126C92.2773 11.6439 91.9519 11.5791 91.6259 11.5184L91.7174 11.0269C91.3872 10.9654 91.0563 10.908 90.7248 10.8547L90.6454 11.3483C90.3178 11.2956 89.9897 11.2469 89.661 11.2023L89.7283 10.7069C89.3955 10.6617 89.0622 10.6205 88.7285 10.5835L88.6733 11.0805C88.3436 11.0439 88.0135 11.0114 87.683 10.9829L87.7259 10.4848C87.3913 10.456 87.0564 10.4313 86.7212 10.4107L86.6905 10.9097C86.3595 10.8894 86.0282 10.8731 85.6966 10.8609L85.715 10.3612C85.3795 10.3489 85.0438 10.3406 84.7079 10.3365L84.7018 10.8365C84.3702 10.8324 84.0384 10.8324 83.7066 10.8365L83.7005 10.3365C83.3648 10.3406 83.0291 10.3489 82.6934 10.3612L82.7118 10.8609C82.3805 10.8731 82.0491 10.8894 81.7179 10.9097L81.6872 10.4106C81.3522 10.4312 81.0173 10.4559 80.6825 10.4848L80.7254 10.9829C80.3951 11.0114 80.065 11.0439 79.7351 11.0805L79.68 10.5835C79.3465 10.6205 79.0131 10.6616 78.6802 10.7068L78.7475 11.2023C78.419 11.2469 78.0908 11.2956 77.763 11.3483L77.6836 10.8547C77.3523 10.908 77.0215 10.9654 76.6911 11.0269L76.7826 11.5184C76.6196 11.5488 76.4567 11.5802 76.2939 11.6125C76.1311 11.6449 75.9686 11.6783 75.8064 11.7126L75.7028 11.2235C75.374 11.2931 75.0464 11.3666 74.72 11.4442L74.8355 11.9306C74.5125 12.0073 74.1907 12.088 73.8701 12.1724L73.7427 11.689C73.4177 11.7746 73.0941 11.8642 72.7717 11.9576L72.911 12.4379C72.5922 12.5303 72.2748 12.6266 71.9588 12.7267L71.8078 12.2501C71.4875 12.3515 71.1686 12.4569 70.8512 12.5661L71.0138 13.0389C70.7 13.1468 70.3877 13.2586 70.0769 13.3741L69.9026 12.9055C69.5878 13.0225 69.2745 13.1434 68.9628 13.268L69.1484 13.7323C68.8403 13.8555 68.5338 13.9824 68.229 14.1131L68.032 13.6536C67.7233 13.7859 67.4163 13.922 67.111 14.0618L67.3193 14.5164C67.0176 14.6546 66.7177 14.7964 66.4197 14.9419L66.2004 14.4925C65.8986 14.6398 65.5986 14.7908 65.3005 14.9455L65.5308 15.3893C65.2363 15.5421 64.9438 15.6985 64.6532 15.8584L64.4121 15.4204C64.1179 15.5823 63.8257 15.7478 63.5355 15.9169L63.7873 16.3489C63.5007 16.5159 63.2162 16.6865 62.9337 16.8605L62.6715 16.4348C62.3856 16.6109 62.1019 16.7906 61.8203 16.9738L62.093 17.3929C61.815 17.5737 61.5392 17.758 61.2655 17.9458L60.9827 17.5335C60.7059 17.7234 60.4313 17.9167 60.1591 18.1135L60.452 18.5187C60.1832 18.713 59.9168 18.9106 59.6527 19.1115L59.3499 18.7136C59.0828 18.9169 58.818 19.1235 58.5557 19.3335L58.8681 19.7238C58.6093 19.931 58.3529 20.1414 58.0989 20.3551L57.777 19.9725C57.5202 20.1886 57.2659 20.4079 57.0142 20.6305L57.3454 21.0051C57.097 21.2247 56.8512 21.4475 56.608 21.6734L56.2677 21.3071Z" fill="url(#paint0_linear_1478_9407)" stroke="url(#paint1_linear_1478_9407)" stroke-dasharray="1 1"/>
<path d="M55.1796 22.3557C49.4391 28.0962 45.5298 35.41 43.9459 43.3724C42.3621 51.3347 43.175 59.5878 46.2817 67.0881C49.3885 74.5885 54.6496 80.9991 61.3997 85.5094C68.1498 90.0197 76.0858 92.427 84.2041 92.427V76.0083C79.3331 76.0083 74.5715 74.5639 70.5214 71.8577C66.4714 69.1516 63.3147 65.3052 61.4507 60.805C59.5866 56.3048 59.0989 51.3529 60.0492 46.5755C60.9995 41.7981 63.3451 37.4098 66.7894 33.9655L55.1796 22.3557Z" fill="url(#paint2_linear_1478_9407)" stroke="white"/>
<path d="M84.2031 92.4272C89.5935 92.4272 94.931 91.3655 99.9111 89.3027C104.891 87.2399 109.416 84.2165 113.228 80.4049C117.039 76.5934 120.063 72.0684 122.125 67.0883C124.188 62.1083 125.25 56.7708 125.25 51.3804H108.831C108.831 54.6146 108.194 57.8171 106.957 60.8052C105.719 63.7932 103.905 66.5082 101.618 68.7951C99.3309 71.082 96.6159 72.8961 93.6279 74.1338C90.6399 75.3715 87.4373 76.0085 84.2031 76.0085V92.4272Z" fill="url(#paint3_linear_1478_9407)" stroke="white"/>
<path d="M102.75 6.58329V7.42704H99.8906V6.58329H102.75ZM100.215 1.73954V7.42704H99.1406V1.73954H100.215ZM103.207 5.35673V5.2747C103.207 4.9648 103.251 4.67964 103.34 4.41923C103.428 4.15621 103.557 3.92834 103.727 3.73563C103.896 3.54293 104.103 3.39319 104.348 3.28642C104.592 3.17704 104.871 3.12235 105.184 3.12235C105.501 3.12235 105.783 3.17704 106.027 3.28642C106.275 3.39319 106.483 3.54293 106.652 3.73563C106.822 3.92834 106.951 4.15621 107.039 4.41923C107.128 4.67964 107.172 4.9648 107.172 5.2747V5.35673C107.172 5.66402 107.128 5.94918 107.039 6.2122C106.951 6.47261 106.822 6.70048 106.652 6.89579C106.483 7.0885 106.276 7.23824 106.031 7.34501C105.786 7.45178 105.507 7.50517 105.191 7.50517C104.879 7.50517 104.599 7.45178 104.352 7.34501C104.104 7.23824 103.896 7.0885 103.727 6.89579C103.557 6.70048 103.428 6.47261 103.34 6.2122C103.251 5.94918 103.207 5.66402 103.207 5.35673ZM104.238 5.2747V5.35673C104.238 5.54162 104.257 5.7148 104.293 5.87626C104.329 6.03772 104.385 6.17964 104.461 6.30204C104.536 6.42444 104.634 6.52079 104.754 6.5911C104.876 6.65881 105.022 6.69267 105.191 6.69267C105.358 6.69267 105.501 6.65881 105.621 6.5911C105.741 6.52079 105.839 6.42444 105.914 6.30204C105.992 6.17964 106.049 6.03772 106.086 5.87626C106.122 5.7148 106.141 5.54162 106.141 5.35673V5.2747C106.141 5.0924 106.122 4.92183 106.086 4.76298C106.049 4.60152 105.992 4.45959 105.914 4.3372C105.839 4.2122 105.74 4.11454 105.617 4.04423C105.497 3.97131 105.353 3.93485 105.184 3.93485C105.017 3.93485 104.874 3.97131 104.754 4.04423C104.634 4.11454 104.536 4.2122 104.461 4.3372C104.385 4.45959 104.329 4.60152 104.293 4.76298C104.257 4.92183 104.238 5.0924 104.238 5.2747ZM110.25 6.5286V4.57938C110.25 4.43615 110.225 4.31246 110.176 4.20829C110.126 4.10412 110.051 4.02339 109.949 3.9661C109.848 3.90881 109.719 3.88017 109.562 3.88017C109.424 3.88017 109.303 3.9036 109.199 3.95048C109.098 3.99735 109.02 4.06376 108.965 4.1497C108.91 4.23303 108.883 4.32938 108.883 4.43876H107.848C107.848 4.26428 107.889 4.09892 107.973 3.94267C108.056 3.78381 108.174 3.64319 108.328 3.52079C108.484 3.39579 108.671 3.29813 108.887 3.22782C109.105 3.15751 109.35 3.12235 109.621 3.12235C109.941 3.12235 110.227 3.17704 110.477 3.28642C110.729 3.39319 110.927 3.55464 111.07 3.77079C111.216 3.98694 111.289 4.25907 111.289 4.5872V6.43095C111.289 6.64188 111.302 6.82287 111.328 6.97392C111.357 7.12235 111.398 7.25126 111.453 7.36063V7.42704H110.402C110.353 7.32027 110.315 7.18485 110.289 7.02079C110.263 6.85412 110.25 6.69006 110.25 6.5286ZM110.395 4.85282L110.402 5.4661H109.75C109.589 5.4661 109.447 5.48303 109.324 5.51688C109.202 5.54813 109.102 5.59501 109.023 5.65751C108.945 5.7174 108.887 5.79032 108.848 5.87626C108.809 5.95959 108.789 6.05464 108.789 6.16142C108.789 6.26558 108.812 6.35933 108.859 6.44267C108.909 6.526 108.979 6.5924 109.07 6.64188C109.164 6.68876 109.273 6.7122 109.398 6.7122C109.581 6.7122 109.74 6.67574 109.875 6.60282C110.01 6.5273 110.116 6.43615 110.191 6.32938C110.267 6.22261 110.307 6.12105 110.312 6.0247L110.609 6.47001C110.573 6.57678 110.518 6.69006 110.445 6.80985C110.372 6.92964 110.279 7.04162 110.164 7.14579C110.049 7.24996 109.911 7.33589 109.75 7.4036C109.589 7.47131 109.401 7.50517 109.188 7.50517C108.914 7.50517 108.669 7.45048 108.453 7.3411C108.237 7.23173 108.066 7.08199 107.941 6.89188C107.816 6.70178 107.754 6.48563 107.754 6.24345C107.754 6.01949 107.796 5.82157 107.879 5.6497C107.962 5.47782 108.086 5.33329 108.25 5.2161C108.414 5.09631 108.617 5.00647 108.859 4.94657C109.104 4.88407 109.384 4.85282 109.699 4.85282H110.395ZM113.23 4.10282V7.42704H112.199V3.20048H113.168L113.23 4.10282ZM113.066 5.16142H112.762C112.764 4.85412 112.806 4.57548 112.887 4.32548C112.967 4.07548 113.081 3.86063 113.227 3.68095C113.375 3.50126 113.551 3.36324 113.754 3.26688C113.957 3.17053 114.184 3.12235 114.434 3.12235C114.637 3.12235 114.82 3.151 114.984 3.20829C115.148 3.26558 115.289 3.35673 115.406 3.48173C115.526 3.60673 115.617 3.77079 115.68 3.97392C115.745 4.17444 115.777 4.42183 115.777 4.7161V7.42704H114.738V4.70829C114.738 4.51558 114.71 4.36324 114.652 4.25126C114.598 4.13928 114.517 4.05985 114.41 4.01298C114.306 3.9661 114.177 3.94267 114.023 3.94267C113.865 3.94267 113.725 3.97522 113.605 4.04032C113.488 4.10282 113.389 4.19006 113.309 4.30204C113.23 4.41402 113.171 4.54293 113.129 4.68876C113.087 4.83459 113.066 4.99214 113.066 5.16142ZM119.012 6.27079C119.012 6.18225 118.988 6.10282 118.941 6.03251C118.895 5.9622 118.806 5.89839 118.676 5.8411C118.548 5.78121 118.361 5.72522 118.113 5.67313C117.895 5.62626 117.693 5.56767 117.508 5.49735C117.323 5.42704 117.164 5.3424 117.031 5.24345C116.898 5.14188 116.794 5.02339 116.719 4.88798C116.646 4.74996 116.609 4.5911 116.609 4.41142C116.609 4.23694 116.647 4.07287 116.723 3.91923C116.798 3.76298 116.908 3.62626 117.051 3.50907C117.194 3.38928 117.368 3.29553 117.574 3.22782C117.78 3.15751 118.012 3.12235 118.27 3.12235C118.629 3.12235 118.938 3.18095 119.195 3.29813C119.456 3.41532 119.655 3.57678 119.793 3.78251C119.931 3.98563 120 4.2148 120 4.47001H118.969C118.969 4.35803 118.943 4.25647 118.891 4.16532C118.841 4.07418 118.764 4.00126 118.66 3.94657C118.556 3.88928 118.424 3.86063 118.266 3.86063C118.122 3.86063 118.001 3.88407 117.902 3.93095C117.806 3.97782 117.733 4.03902 117.684 4.11454C117.634 4.19006 117.609 4.27339 117.609 4.36454C117.609 4.43225 117.622 4.49345 117.648 4.54813C117.677 4.60022 117.723 4.64839 117.785 4.69267C117.848 4.73694 117.932 4.7773 118.039 4.81376C118.148 4.85022 118.283 4.88537 118.441 4.91923C118.757 4.98173 119.031 5.06506 119.266 5.16923C119.503 5.27079 119.688 5.40621 119.82 5.57548C119.953 5.74475 120.02 5.96089 120.02 6.22392C120.02 6.41142 119.979 6.58329 119.898 6.73954C119.818 6.89319 119.701 7.0273 119.547 7.14188C119.393 7.25647 119.21 7.34631 118.996 7.41142C118.783 7.47392 118.542 7.50517 118.273 7.50517C117.885 7.50517 117.557 7.43615 117.289 7.29813C117.021 7.15751 116.818 6.98043 116.68 6.76688C116.542 6.55074 116.473 6.32678 116.473 6.09501H117.461C117.469 6.25907 117.513 6.39058 117.594 6.48954C117.674 6.5885 117.776 6.66011 117.898 6.70438C118.023 6.74605 118.155 6.76688 118.293 6.76688C118.449 6.76688 118.581 6.74605 118.688 6.70438C118.794 6.66011 118.875 6.60152 118.93 6.5286C118.984 6.45308 119.012 6.36714 119.012 6.27079Z" fill="url(#paint4_linear_1478_9407)"/>
<path d="M4.09766 72.7456C4.09766 72.6362 4.08073 72.5386 4.04688 72.4526C4.01562 72.3641 3.95703 72.2847 3.87109 72.2144C3.78776 72.1414 3.66927 72.0711 3.51562 72.0034C3.36458 71.9331 3.16927 71.8602 2.92969 71.7847C2.66406 71.7013 2.41667 71.6076 2.1875 71.5034C1.95833 71.3993 1.75651 71.2782 1.58203 71.1401C1.41016 71.0021 1.27604 70.8433 1.17969 70.6636C1.08333 70.4813 1.03516 70.2703 1.03516 70.0308C1.03516 69.7964 1.08464 69.5828 1.18359 69.3901C1.28516 69.1974 1.42839 69.0321 1.61328 68.894C1.79818 68.7534 2.01562 68.6453 2.26562 68.5698C2.51823 68.4943 2.79688 68.4565 3.10156 68.4565C3.52344 68.4565 3.88802 68.5334 4.19531 68.687C4.50521 68.8407 4.74479 69.049 4.91406 69.312C5.08333 69.575 5.16797 69.8706 5.16797 70.1987H4.09766C4.09766 70.0216 4.0599 69.8654 3.98438 69.73C3.91146 69.5946 3.79948 69.4878 3.64844 69.4097C3.5 69.3315 3.3125 69.2925 3.08594 69.2925C2.86719 69.2925 2.6849 69.325 2.53906 69.3901C2.39583 69.4552 2.28776 69.5438 2.21484 69.6558C2.14453 69.7677 2.10938 69.8927 2.10938 70.0308C2.10938 70.1349 2.13411 70.2287 2.18359 70.312C2.23307 70.3927 2.30729 70.4696 2.40625 70.5425C2.50521 70.6128 2.6276 70.6792 2.77344 70.7417C2.92188 70.8016 3.09375 70.8615 3.28906 70.9214C3.60156 71.0151 3.875 71.1193 4.10938 71.2339C4.34635 71.3485 4.54297 71.4787 4.69922 71.6245C4.85807 71.7703 4.97656 71.9344 5.05469 72.1167C5.13542 72.299 5.17578 72.506 5.17578 72.7378C5.17578 72.9826 5.1276 73.2013 5.03125 73.394C4.9349 73.5868 4.79688 73.7508 4.61719 73.8862C4.4375 74.0216 4.22135 74.1245 3.96875 74.1948C3.71875 74.2651 3.4388 74.3003 3.12891 74.3003C2.85286 74.3003 2.57943 74.2638 2.30859 74.1909C2.04036 74.1154 1.79688 74.0034 1.57812 73.855C1.35938 73.7039 1.1849 73.5138 1.05469 73.2847C0.924479 73.0529 0.859375 72.7821 0.859375 72.4722H1.9375C1.9375 72.6519 1.96615 72.8055 2.02344 72.9331C2.08333 73.0581 2.16667 73.161 2.27344 73.2417C2.38281 73.3198 2.51042 73.3771 2.65625 73.4136C2.80208 73.45 2.95964 73.4683 3.12891 73.4683C3.34766 73.4683 3.52734 73.4383 3.66797 73.3784C3.8112 73.3159 3.91797 73.23 3.98828 73.1206C4.0612 73.0112 4.09766 72.8862 4.09766 72.7456ZM7.82422 74.3003C7.50391 74.3003 7.21615 74.2482 6.96094 74.144C6.70573 74.0399 6.48828 73.8953 6.30859 73.7104C6.13151 73.5229 5.99479 73.3055 5.89844 73.0581C5.80469 72.8081 5.75781 72.5399 5.75781 72.2534V72.0972C5.75781 71.7716 5.80469 71.4761 5.89844 71.2104C5.99219 70.9422 6.125 70.7118 6.29688 70.519C6.46875 70.3263 6.67448 70.1779 6.91406 70.0737C7.15365 69.9696 7.41797 69.9175 7.70703 69.9175C8.00651 69.9175 8.27083 69.9683 8.5 70.0698C8.72917 70.1688 8.92057 70.3094 9.07422 70.4917C9.22786 70.674 9.34375 70.8927 9.42188 71.1479C9.5 71.4006 9.53906 71.6805 9.53906 71.9878V72.4214H6.22656V71.7104H8.52344V71.6323C8.51823 71.4683 8.48698 71.3185 8.42969 71.1831C8.3724 71.0451 8.28385 70.9357 8.16406 70.855C8.04427 70.7716 7.88932 70.73 7.69922 70.73C7.54557 70.73 7.41146 70.7638 7.29688 70.8315C7.1849 70.8966 7.09115 70.9904 7.01562 71.1128C6.94271 71.2326 6.88802 71.3758 6.85156 71.5425C6.8151 71.7091 6.79688 71.894 6.79688 72.0972V72.2534C6.79688 72.4305 6.82031 72.5946 6.86719 72.7456C6.91667 72.8966 6.98828 73.0282 7.08203 73.1401C7.17839 73.2495 7.29297 73.3354 7.42578 73.3979C7.5612 73.4578 7.71484 73.4878 7.88672 73.4878C8.10286 73.4878 8.29818 73.4461 8.47266 73.3628C8.64974 73.2769 8.80339 73.1506 8.93359 72.9839L9.45312 73.5229C9.36458 73.6532 9.24479 73.7782 9.09375 73.8979C8.94531 74.0177 8.76562 74.1154 8.55469 74.1909C8.34375 74.2638 8.10026 74.3003 7.82422 74.3003ZM11.9648 73.4878C12.1107 73.4878 12.2409 73.4591 12.3555 73.4019C12.4701 73.3446 12.5612 73.2638 12.6289 73.1597C12.6992 73.0555 12.737 72.9344 12.7422 72.7964H13.7148C13.7096 73.0828 13.6289 73.3394 13.4727 73.5659C13.3164 73.7925 13.1081 73.9722 12.8477 74.105C12.5898 74.2352 12.3008 74.3003 11.9805 74.3003C11.6549 74.3003 11.3711 74.2456 11.1289 74.1362C10.8867 74.0269 10.6849 73.8745 10.5234 73.6792C10.3646 73.4839 10.2448 73.2573 10.1641 72.9995C10.0859 72.7417 10.0469 72.4657 10.0469 72.1714V72.0464C10.0469 71.7521 10.0859 71.4761 10.1641 71.2183C10.2448 70.9604 10.3646 70.7339 10.5234 70.5386C10.6849 70.3433 10.8867 70.1909 11.1289 70.0815C11.3711 69.9722 11.6536 69.9175 11.9766 69.9175C12.3177 69.9175 12.6172 69.9839 12.875 70.1167C13.1354 70.2495 13.3385 70.437 13.4844 70.6792C13.6328 70.9214 13.7096 71.2065 13.7148 71.5347H12.7422C12.737 71.3836 12.7031 71.2482 12.6406 71.1284C12.5781 71.0086 12.4896 70.9123 12.375 70.8394C12.2604 70.7664 12.1211 70.73 11.957 70.73C11.7826 70.73 11.6367 70.7664 11.5195 70.8394C11.4049 70.9123 11.3151 71.0125 11.25 71.1401C11.1875 71.2651 11.1432 71.4058 11.1172 71.562C11.0938 71.7157 11.082 71.8771 11.082 72.0464V72.1714C11.082 72.3433 11.0938 72.5073 11.1172 72.6636C11.1432 72.8198 11.1875 72.9604 11.25 73.0854C11.3151 73.2078 11.4049 73.3055 11.5195 73.3784C11.6367 73.4513 11.7852 73.4878 11.9648 73.4878ZM16.918 73.2183V69.9956H17.957V74.2222H16.9805L16.918 73.2183ZM17.0508 72.3433L17.3711 72.3354C17.3711 72.6193 17.3398 72.881 17.2773 73.1206C17.2148 73.3602 17.1172 73.5685 16.9844 73.7456C16.8542 73.9201 16.6888 74.0568 16.4883 74.1558C16.2878 74.2521 16.0508 74.3003 15.7773 74.3003C15.569 74.3003 15.3789 74.2716 15.207 74.2144C15.0352 74.1545 14.8867 74.062 14.7617 73.937C14.6393 73.8094 14.5443 73.6466 14.4766 73.4487C14.4089 73.2482 14.375 73.0073 14.375 72.7261V69.9956H15.4062V72.7339C15.4062 72.8745 15.4219 72.9917 15.4531 73.0854C15.487 73.1792 15.5326 73.256 15.5898 73.3159C15.6497 73.3732 15.7188 73.4149 15.7969 73.4409C15.8776 73.4644 15.9635 73.4761 16.0547 73.4761C16.3047 73.4761 16.5013 73.4266 16.6445 73.3276C16.7904 73.2261 16.8945 73.0907 16.957 72.9214C17.0195 72.7495 17.0508 72.5568 17.0508 72.3433ZM19.9023 70.8589V74.2222H18.8711V69.9956H19.8477L19.9023 70.8589ZM21.1875 69.9683L21.1719 70.9292C21.1146 70.9188 21.0495 70.911 20.9766 70.9058C20.9062 70.9006 20.8398 70.8979 20.7773 70.8979C20.6185 70.8979 20.4792 70.9201 20.3594 70.9644C20.2396 71.006 20.1393 71.0672 20.0586 71.1479C19.9805 71.2287 19.9206 71.3276 19.8789 71.4448C19.8372 71.5594 19.8138 71.6896 19.8086 71.8354L19.5859 71.8081C19.5859 71.5399 19.6133 71.2912 19.668 71.062C19.7227 70.8328 19.8021 70.6323 19.9062 70.4604C20.0104 70.2886 20.1406 70.1558 20.2969 70.062C20.4557 69.9657 20.638 69.9175 20.8438 69.9175C20.901 69.9175 20.9622 69.9227 21.0273 69.9331C21.0951 69.9409 21.1484 69.9526 21.1875 69.9683ZM22.8477 69.9956V74.2222H21.8125V69.9956H22.8477ZM21.7422 68.8901C21.7422 68.7365 21.7943 68.6089 21.8984 68.5073C22.0052 68.4058 22.1484 68.355 22.3281 68.355C22.5078 68.355 22.6497 68.4058 22.7539 68.5073C22.8607 68.6089 22.9141 68.7365 22.9141 68.8901C22.9141 69.0412 22.8607 69.1675 22.7539 69.269C22.6497 69.3706 22.5078 69.4214 22.3281 69.4214C22.1484 69.4214 22.0052 69.3706 21.8984 69.269C21.7943 69.1675 21.7422 69.0412 21.7422 68.8901ZM25.832 69.9956V70.7378H23.4102V69.9956H25.832ZM24.0586 68.9565H25.0938V73.0034C25.0938 73.1284 25.1107 73.2248 25.1445 73.2925C25.1784 73.3602 25.2292 73.4058 25.2969 73.4292C25.3646 73.4526 25.4453 73.4644 25.5391 73.4644C25.6068 73.4644 25.6693 73.4604 25.7266 73.4526C25.7839 73.4448 25.832 73.437 25.8711 73.4292L25.875 74.2026C25.7891 74.2313 25.6914 74.2547 25.582 74.2729C25.4753 74.2912 25.3542 74.3003 25.2188 74.3003C24.987 74.3003 24.7839 74.2612 24.6094 74.1831C24.4349 74.1024 24.2995 73.9735 24.2031 73.7964C24.1068 73.6167 24.0586 73.3797 24.0586 73.0854V68.9565ZM27.6133 69.9956V74.2222H26.5781V69.9956H27.6133ZM26.5078 68.8901C26.5078 68.7365 26.5599 68.6089 26.6641 68.5073C26.7708 68.4058 26.9141 68.355 27.0938 68.355C27.2734 68.355 27.4154 68.4058 27.5195 68.5073C27.6263 68.6089 27.6797 68.7365 27.6797 68.8901C27.6797 69.0412 27.6263 69.1675 27.5195 69.269C27.4154 69.3706 27.2734 69.4214 27.0938 69.4214C26.9141 69.4214 26.7708 69.3706 26.6641 69.269C26.5599 69.1675 26.5078 69.0412 26.5078 68.8901ZM30.4961 74.3003C30.1758 74.3003 29.888 74.2482 29.6328 74.144C29.3776 74.0399 29.1602 73.8953 28.9805 73.7104C28.8034 73.5229 28.6667 73.3055 28.5703 73.0581C28.4766 72.8081 28.4297 72.5399 28.4297 72.2534V72.0972C28.4297 71.7716 28.4766 71.4761 28.5703 71.2104C28.6641 70.9422 28.7969 70.7118 28.9688 70.519C29.1406 70.3263 29.3464 70.1779 29.5859 70.0737C29.8255 69.9696 30.0898 69.9175 30.3789 69.9175C30.6784 69.9175 30.9427 69.9683 31.1719 70.0698C31.401 70.1688 31.5924 70.3094 31.7461 70.4917C31.8997 70.674 32.0156 70.8927 32.0938 71.1479C32.1719 71.4006 32.2109 71.6805 32.2109 71.9878V72.4214H28.8984V71.7104H31.1953V71.6323C31.1901 71.4683 31.1589 71.3185 31.1016 71.1831C31.0443 71.0451 30.9557 70.9357 30.8359 70.855C30.7161 70.7716 30.5612 70.73 30.3711 70.73C30.2174 70.73 30.0833 70.7638 29.9688 70.8315C29.8568 70.8966 29.763 70.9904 29.6875 71.1128C29.6146 71.2326 29.5599 71.3758 29.5234 71.5425C29.487 71.7091 29.4688 71.894 29.4688 72.0972V72.2534C29.4688 72.4305 29.4922 72.5946 29.5391 72.7456C29.5885 72.8966 29.6602 73.0282 29.7539 73.1401C29.8503 73.2495 29.9648 73.3354 30.0977 73.3979C30.2331 73.4578 30.3867 73.4878 30.5586 73.4878C30.7747 73.4878 30.9701 73.4461 31.1445 73.3628C31.3216 73.2769 31.4753 73.1506 31.6055 72.9839L32.125 73.5229C32.0365 73.6532 31.9167 73.7782 31.7656 73.8979C31.6172 74.0177 31.4375 74.1154 31.2266 74.1909C31.0156 74.2638 30.7721 74.3003 30.4961 74.3003ZM35.2266 73.0659C35.2266 72.9774 35.2031 72.8979 35.1562 72.8276C35.1094 72.7573 35.0208 72.6935 34.8906 72.6362C34.763 72.5763 34.5755 72.5203 34.3281 72.4683C34.1094 72.4214 33.9076 72.3628 33.7227 72.2925C33.5378 72.2222 33.3789 72.1375 33.2461 72.0386C33.1133 71.937 33.0091 71.8185 32.9336 71.6831C32.8607 71.5451 32.8242 71.3862 32.8242 71.2065C32.8242 71.0321 32.862 70.868 32.9375 70.7144C33.013 70.5581 33.1224 70.4214 33.2656 70.3042C33.4089 70.1844 33.5833 70.0907 33.7891 70.0229C33.9948 69.9526 34.2266 69.9175 34.4844 69.9175C34.8438 69.9175 35.1523 69.9761 35.4102 70.0933C35.6706 70.2104 35.8698 70.3719 36.0078 70.5776C36.1458 70.7808 36.2148 71.0099 36.2148 71.2651H35.1836C35.1836 71.1532 35.1576 71.0516 35.1055 70.9604C35.056 70.8693 34.9792 70.7964 34.875 70.7417C34.7708 70.6844 34.6393 70.6558 34.4805 70.6558C34.3372 70.6558 34.2161 70.6792 34.1172 70.7261C34.0208 70.7729 33.9479 70.8341 33.8984 70.9097C33.849 70.9852 33.8242 71.0685 33.8242 71.1597C33.8242 71.2274 33.8372 71.2886 33.8633 71.3433C33.8919 71.3953 33.9375 71.4435 34 71.4878C34.0625 71.5321 34.1471 71.5724 34.2539 71.6089C34.3633 71.6453 34.4974 71.6805 34.6562 71.7144C34.9714 71.7769 35.2461 71.8602 35.4805 71.9644C35.7174 72.0659 35.9023 72.2013 36.0352 72.3706C36.168 72.5399 36.2344 72.756 36.2344 73.019C36.2344 73.2065 36.194 73.3784 36.1133 73.5347C36.0326 73.6883 35.9154 73.8224 35.7617 73.937C35.6081 74.0516 35.4245 74.1414 35.2109 74.2065C34.9974 74.269 34.7565 74.3003 34.4883 74.3003C34.1003 74.3003 33.7721 74.2313 33.5039 74.0933C33.2357 73.9526 33.0326 73.7756 32.8945 73.562C32.7565 73.3459 32.6875 73.1219 32.6875 72.8901H33.6758C33.6836 73.0542 33.7279 73.1857 33.8086 73.2847C33.8893 73.3836 33.9909 73.4552 34.1133 73.4995C34.2383 73.5412 34.3698 73.562 34.5078 73.562C34.6641 73.562 34.7956 73.5412 34.9023 73.4995C35.0091 73.4552 35.0898 73.3966 35.1445 73.3237C35.1992 73.2482 35.2266 73.1623 35.2266 73.0659Z" fill="url(#paint5_linear_1478_9407)"/>
<path d="M124.32 89.9271H123.094L123.102 89.0833H124.32C124.651 89.0833 124.928 89.0104 125.152 88.8646C125.376 88.7161 125.546 88.5039 125.66 88.2278C125.775 87.9492 125.832 87.6159 125.832 87.2278V86.9349C125.832 86.6354 125.799 86.3711 125.734 86.1419C125.669 85.9127 125.573 85.72 125.445 85.5638C125.32 85.4075 125.165 85.289 124.98 85.2083C124.796 85.1276 124.583 85.0872 124.344 85.0872H123.07V84.2396H124.344C124.724 84.2396 125.07 84.3034 125.383 84.431C125.698 84.5586 125.97 84.7422 126.199 84.9818C126.431 85.2187 126.608 85.5026 126.73 85.8333C126.855 86.164 126.918 86.5338 126.918 86.9427V87.2278C126.918 87.6341 126.855 88.0039 126.73 88.3372C126.608 88.6679 126.431 88.9518 126.199 89.1888C125.97 89.4258 125.697 89.6081 125.379 89.7357C125.061 89.8633 124.708 89.9271 124.32 89.9271ZM123.695 84.2396V89.9271H122.621V84.2396H123.695ZM129.652 90.0052C129.332 90.0052 129.044 89.9531 128.789 89.8489C128.534 89.7448 128.316 89.6002 128.137 89.4153C127.96 89.2278 127.823 89.0104 127.727 88.763C127.633 88.513 127.586 88.2448 127.586 87.9583V87.8021C127.586 87.4765 127.633 87.181 127.727 86.9153C127.82 86.6471 127.953 86.4166 128.125 86.2239C128.297 86.0312 128.503 85.8828 128.742 85.7786C128.982 85.6745 129.246 85.6224 129.535 85.6224C129.835 85.6224 130.099 85.6732 130.328 85.7747C130.557 85.8737 130.749 86.0143 130.902 86.1966C131.056 86.3789 131.172 86.5976 131.25 86.8528C131.328 87.1054 131.367 87.3854 131.367 87.6927V88.1263H128.055V87.4153H130.352V87.3372C130.346 87.1732 130.315 87.0234 130.258 86.888C130.201 86.75 130.112 86.6406 129.992 86.5599C129.872 86.4765 129.717 86.4349 129.527 86.4349C129.374 86.4349 129.24 86.4687 129.125 86.5364C129.013 86.6015 128.919 86.6953 128.844 86.8177C128.771 86.9375 128.716 87.0807 128.68 87.2474C128.643 87.414 128.625 87.5989 128.625 87.8021V87.9583C128.625 88.1354 128.648 88.2995 128.695 88.4505C128.745 88.6015 128.816 88.7331 128.91 88.845C129.007 88.9544 129.121 89.0403 129.254 89.1028C129.389 89.1627 129.543 89.1927 129.715 89.1927C129.931 89.1927 130.126 89.151 130.301 89.0677C130.478 88.9818 130.632 88.8554 130.762 88.6888L131.281 89.2278C131.193 89.3581 131.073 89.4831 130.922 89.6028C130.773 89.7226 130.594 89.8203 130.383 89.8958C130.172 89.9687 129.928 90.0052 129.652 90.0052ZM133.09 86.513V91.5521H132.055V85.7005H133.012L133.09 86.513ZM135.805 87.7708V87.8528C135.805 88.1601 135.768 88.4453 135.695 88.7083C135.625 88.9687 135.521 89.1966 135.383 89.3919C135.245 89.5846 135.073 89.7357 134.867 89.845C134.664 89.9518 134.43 90.0052 134.164 90.0052C133.904 90.0052 133.677 89.9557 133.484 89.8568C133.292 89.7552 133.129 89.612 132.996 89.4271C132.863 89.2422 132.757 89.0273 132.676 88.7825C132.598 88.5351 132.539 88.2656 132.5 87.9739V87.7122C132.539 87.4023 132.598 87.1211 132.676 86.8685C132.757 86.6133 132.863 86.3932 132.996 86.2083C133.129 86.0208 133.29 85.8763 133.48 85.7747C133.673 85.6732 133.898 85.6224 134.156 85.6224C134.424 85.6224 134.66 85.6732 134.863 85.7747C135.069 85.8763 135.242 86.0221 135.383 86.2122C135.523 86.4023 135.629 86.6289 135.699 86.8919C135.77 87.1549 135.805 87.4479 135.805 87.7708ZM134.77 87.8528V87.7708C134.77 87.5833 134.753 87.4101 134.719 87.2513C134.685 87.0898 134.633 86.9492 134.562 86.8294C134.492 86.707 134.401 86.612 134.289 86.5443C134.177 86.4765 134.042 86.4427 133.883 86.4427C133.724 86.4427 133.587 86.4687 133.473 86.5208C133.358 86.5729 133.264 86.6471 133.191 86.7435C133.118 86.8398 133.061 86.9544 133.02 87.0872C132.98 87.2174 132.954 87.362 132.941 87.5208V88.1693C132.965 88.362 133.01 88.5351 133.078 88.6888C133.146 88.8424 133.245 88.9648 133.375 89.056C133.508 89.1471 133.68 89.1927 133.891 89.1927C134.049 89.1927 134.185 89.1575 134.297 89.0872C134.409 89.0169 134.5 88.9206 134.57 88.7982C134.641 88.6732 134.691 88.5299 134.723 88.3685C134.754 88.207 134.77 88.0351 134.77 87.8528ZM136.375 87.8568V87.7747C136.375 87.4648 136.419 87.1797 136.508 86.9193C136.596 86.6562 136.725 86.4284 136.895 86.2357C137.064 86.0429 137.271 85.8932 137.516 85.7864C137.76 85.6771 138.039 85.6224 138.352 85.6224C138.669 85.6224 138.951 85.6771 139.195 85.7864C139.443 85.8932 139.651 86.0429 139.82 86.2357C139.99 86.4284 140.118 86.6562 140.207 86.9193C140.296 87.1797 140.34 87.4648 140.34 87.7747V87.8568C140.34 88.164 140.296 88.4492 140.207 88.7122C140.118 88.9726 139.99 89.2005 139.82 89.3958C139.651 89.5885 139.444 89.7383 139.199 89.845C138.954 89.9518 138.674 90.0052 138.359 90.0052C138.047 90.0052 137.767 89.9518 137.52 89.845C137.272 89.7383 137.064 89.5885 136.895 89.3958C136.725 89.2005 136.596 88.9726 136.508 88.7122C136.419 88.4492 136.375 88.164 136.375 87.8568ZM137.406 87.7747V87.8568C137.406 88.0416 137.424 88.2148 137.461 88.3763C137.497 88.5377 137.553 88.6797 137.629 88.8021C137.704 88.9245 137.802 89.0208 137.922 89.0911C138.044 89.1588 138.19 89.1927 138.359 89.1927C138.526 89.1927 138.669 89.1588 138.789 89.0911C138.909 89.0208 139.007 88.9245 139.082 88.8021C139.16 88.6797 139.217 88.5377 139.254 88.3763C139.29 88.2148 139.309 88.0416 139.309 87.8568V87.7747C139.309 87.5924 139.29 87.4219 139.254 87.263C139.217 87.1015 139.16 86.9596 139.082 86.8372C139.007 86.7122 138.908 86.6146 138.785 86.5443C138.665 86.4713 138.521 86.4349 138.352 86.4349C138.185 86.4349 138.042 86.4713 137.922 86.5443C137.802 86.6146 137.704 86.7122 137.629 86.8372C137.553 86.9596 137.497 87.1015 137.461 87.263C137.424 87.4219 137.406 87.5924 137.406 87.7747ZM143.414 88.7708C143.414 88.6823 143.391 88.6028 143.344 88.5325C143.297 88.4622 143.208 88.3984 143.078 88.3411C142.951 88.2812 142.763 88.2252 142.516 88.1732C142.297 88.1263 142.095 88.0677 141.91 87.9974C141.725 87.9271 141.566 87.8424 141.434 87.7435C141.301 87.6419 141.197 87.5234 141.121 87.388C141.048 87.25 141.012 87.0911 141.012 86.9114C141.012 86.737 141.049 86.5729 141.125 86.4193C141.201 86.263 141.31 86.1263 141.453 86.0091C141.596 85.8893 141.771 85.7956 141.977 85.7278C142.182 85.6575 142.414 85.6224 142.672 85.6224C143.031 85.6224 143.34 85.681 143.598 85.7982C143.858 85.9153 144.057 86.0768 144.195 86.2825C144.333 86.4857 144.402 86.7148 144.402 86.97H143.371C143.371 86.8581 143.345 86.7565 143.293 86.6653C143.243 86.5742 143.167 86.5013 143.062 86.4466C142.958 86.3893 142.827 86.3607 142.668 86.3607C142.525 86.3607 142.404 86.3841 142.305 86.431C142.208 86.4778 142.135 86.539 142.086 86.6146C142.036 86.6901 142.012 86.7734 142.012 86.8646C142.012 86.9323 142.025 86.9935 142.051 87.0482C142.079 87.1002 142.125 87.1484 142.188 87.1927C142.25 87.237 142.335 87.2773 142.441 87.3138C142.551 87.3502 142.685 87.3854 142.844 87.4193C143.159 87.4818 143.434 87.5651 143.668 87.6693C143.905 87.7708 144.09 87.9062 144.223 88.0755C144.355 88.2448 144.422 88.4609 144.422 88.7239C144.422 88.9114 144.382 89.0833 144.301 89.2396C144.22 89.3932 144.103 89.5273 143.949 89.6419C143.796 89.7565 143.612 89.8463 143.398 89.9114C143.185 89.9739 142.944 90.0052 142.676 90.0052C142.288 90.0052 141.96 89.9362 141.691 89.7982C141.423 89.6575 141.22 89.4804 141.082 89.2669C140.944 89.0508 140.875 88.8268 140.875 88.595H141.863C141.871 88.7591 141.915 88.8906 141.996 88.9896C142.077 89.0885 142.178 89.1601 142.301 89.2044C142.426 89.2461 142.557 89.2669 142.695 89.2669C142.852 89.2669 142.983 89.2461 143.09 89.2044C143.197 89.1601 143.277 89.1015 143.332 89.0286C143.387 88.9531 143.414 88.8672 143.414 88.7708ZM146.301 85.7005V89.9271H145.266V85.7005H146.301ZM145.195 84.595C145.195 84.4414 145.247 84.3138 145.352 84.2122C145.458 84.1107 145.602 84.0599 145.781 84.0599C145.961 84.0599 146.103 84.1107 146.207 84.2122C146.314 84.3138 146.367 84.4414 146.367 84.595C146.367 84.7461 146.314 84.8724 146.207 84.9739C146.103 85.0755 145.961 85.1263 145.781 85.1263C145.602 85.1263 145.458 85.0755 145.352 84.9739C145.247 84.8724 145.195 84.7461 145.195 84.595ZM149.285 85.7005V86.4427H146.863V85.7005H149.285ZM147.512 84.6614H148.547V88.7083C148.547 88.8333 148.564 88.9297 148.598 88.9974C148.632 89.0651 148.682 89.1107 148.75 89.1341C148.818 89.1575 148.898 89.1693 148.992 89.1693C149.06 89.1693 149.122 89.1653 149.18 89.1575C149.237 89.1497 149.285 89.1419 149.324 89.1341L149.328 89.9075C149.242 89.9362 149.145 89.9596 149.035 89.9778C148.928 89.9961 148.807 90.0052 148.672 90.0052C148.44 90.0052 148.237 89.9661 148.062 89.888C147.888 89.8073 147.753 89.6784 147.656 89.5013C147.56 89.3216 147.512 89.0846 147.512 88.7903V84.6614ZM152.297 88.7708C152.297 88.6823 152.273 88.6028 152.227 88.5325C152.18 88.4622 152.091 88.3984 151.961 88.3411C151.833 88.2812 151.646 88.2252 151.398 88.1732C151.18 88.1263 150.978 88.0677 150.793 87.9974C150.608 87.9271 150.449 87.8424 150.316 87.7435C150.184 87.6419 150.079 87.5234 150.004 87.388C149.931 87.25 149.895 87.0911 149.895 86.9114C149.895 86.737 149.932 86.5729 150.008 86.4193C150.083 86.263 150.193 86.1263 150.336 86.0091C150.479 85.8893 150.654 85.7956 150.859 85.7278C151.065 85.6575 151.297 85.6224 151.555 85.6224C151.914 85.6224 152.223 85.681 152.48 85.7982C152.741 85.9153 152.94 86.0768 153.078 86.2825C153.216 86.4857 153.285 86.7148 153.285 86.97H152.254C152.254 86.8581 152.228 86.7565 152.176 86.6653C152.126 86.5742 152.049 86.5013 151.945 86.4466C151.841 86.3893 151.71 86.3607 151.551 86.3607C151.408 86.3607 151.286 86.3841 151.188 86.431C151.091 86.4778 151.018 86.539 150.969 86.6146C150.919 86.6901 150.895 86.7734 150.895 86.8646C150.895 86.9323 150.908 86.9935 150.934 87.0482C150.962 87.1002 151.008 87.1484 151.07 87.1927C151.133 87.237 151.217 87.2773 151.324 87.3138C151.434 87.3502 151.568 87.3854 151.727 87.4193C152.042 87.4818 152.316 87.5651 152.551 87.6693C152.788 87.7708 152.973 87.9062 153.105 88.0755C153.238 88.2448 153.305 88.4609 153.305 88.7239C153.305 88.9114 153.264 89.0833 153.184 89.2396C153.103 89.3932 152.986 89.5273 152.832 89.6419C152.678 89.7565 152.495 89.8463 152.281 89.9114C152.068 89.9739 151.827 90.0052 151.559 90.0052C151.171 90.0052 150.842 89.9362 150.574 89.7982C150.306 89.6575 150.103 89.4804 149.965 89.2669C149.827 89.0508 149.758 88.8268 149.758 88.595H150.746C150.754 88.7591 150.798 88.8906 150.879 88.9896C150.96 89.0885 151.061 89.1601 151.184 89.2044C151.309 89.2461 151.44 89.2669 151.578 89.2669C151.734 89.2669 151.866 89.2461 151.973 89.2044C152.079 89.1601 152.16 89.1015 152.215 89.0286C152.27 88.9531 152.297 88.8672 152.297 88.7708Z" fill="url(#paint6_linear_1478_9407)"/>
<defs>
<linearGradient id="paint0_linear_1478_9407" x1="90.2154" y1="10.3334" x2="90.2154" y2="51.3803" gradientUnits="userSpaceOnUse">
<stop stop-color="#FF9364" stop-opacity="0.3"/>
<stop offset="1" stop-color="#F25F33" stop-opacity="0"/>
</linearGradient>
<linearGradient id="paint1_linear_1478_9407" x1="90.2154" y1="10.3334" x2="90.2154" y2="51.3803" gradientUnits="userSpaceOnUse">
<stop stop-color="#FF9364" stop-opacity="0.3"/>
<stop offset="1" stop-color="#F25F33" stop-opacity="0"/>
</linearGradient>
<linearGradient id="paint2_linear_1478_9407" x1="84.2041" y1="22.3557" x2="23.0836" y2="58.1593" gradientUnits="userSpaceOnUse">
<stop offset="0.21253" stop-color="#109878"/>
<stop offset="1" stop-color="#8AB8B2"/>
<stop offset="1" stop-color="#8AB8B2"/>
</linearGradient>
<linearGradient id="paint3_linear_1478_9407" x1="123.711" y1="51.3804" x2="84.2031" y2="92.4272" gradientUnits="userSpaceOnUse">
<stop stop-color="#FF7D1F"/>
<stop offset="1" stop-color="#DBBB9E"/>
</linearGradient>
<linearGradient id="paint4_linear_1478_9407" x1="150.068" y1="0.42704" x2="146.651" y2="19.2434" gradientUnits="userSpaceOnUse">
<stop stop-color="#E60000"/>
<stop offset="1" stop-color="#E69F9F"/>
</linearGradient>
<linearGradient id="paint5_linear_1478_9407" x1="43.5781" y1="67.2222" x2="39.1656" y2="86.196" gradientUnits="userSpaceOnUse">
<stop offset="0.21253" stop-color="#109878"/>
<stop offset="1" stop-color="#8AB8B2"/>
</linearGradient>
<linearGradient id="paint6_linear_1478_9407" x1="152.878" y1="82.9271" x2="148.505" y2="99.081" gradientUnits="userSpaceOnUse">
<stop stop-color="#FF7D1F"/>
<stop offset="1" stop-color="#DBBB9E"/>
</linearGradient>
</defs>
</svg>
