<svg width="11" height="20" viewBox="0 0 11 20" fill="none" xmlns="http://www.w3.org/2000/svg">
<path d="M9.88587 0.19209H9.88589C10.0539 0.192131 10.2181 0.242296 10.3574 0.336166C10.4967 0.430037 10.6049 0.563344 10.6681 0.719032C10.7312 0.87472 10.7465 1.04571 10.7119 1.21012C10.6774 1.37435 10.5947 1.52455 10.4744 1.64156C10.4742 1.64169 10.4741 1.64182 10.474 1.64195L2.48396 9.63197L10.4737 17.6217C10.4739 17.6219 10.474 17.6221 10.4742 17.6223C10.555 17.6999 10.6195 17.7929 10.6639 17.8958C10.7085 17.9988 10.732 18.1098 10.7332 18.2221C10.7343 18.3344 10.713 18.4458 10.6706 18.5498C10.6281 18.6538 10.5653 18.7483 10.4859 18.8277C10.4065 18.9071 10.312 18.9699 10.208 19.0123C10.1041 19.0548 9.99265 19.0761 9.88034 19.0749C9.76803 19.0738 9.65707 19.0503 9.55397 19.0057C9.45113 18.9612 9.35817 18.8968 9.28049 18.816C9.2803 18.8158 9.28011 18.8156 9.27991 18.8154L0.693314 10.2289L0.693302 10.2288C0.535045 10.0705 0.446142 9.85583 0.446142 9.63197C0.446142 9.40812 0.535045 9.19342 0.693302 9.0351L0.693314 9.03509L9.28021 0.448207C9.28034 0.448072 9.28047 0.447937 9.2806 0.447802C9.35921 0.366957 9.45322 0.302677 9.55708 0.258757C9.66111 0.214764 9.77292 0.192094 9.88587 0.19209Z" fill="#E60000" stroke="url(#paint0_linear_542_2438)" stroke-width="0.15"/>
<defs>
<linearGradient id="paint0_linear_542_2438" x1="0.901282" y1="0.267089" x2="16.3173" y2="8.93431" gradientUnits="userSpaceOnUse">
<stop stop-color="#E60000"/>
<stop offset="1" stop-color="#E69F9F"/>
</linearGradient>
</defs>
</svg>
