<svg width="25" height="24" viewBox="0 0 25 24" fill="none" xmlns="http://www.w3.org/2000/svg">
<path d="M18.5 4H6.5C5.39543 4 4.47434 4.90932 4.74685 5.97975C5.33604 8.29411 6.93423 10.2054 9.04545 11.2177C9.86832 11.6123 10.5 12.3858 10.5 13.2984V19.382C10.5 20.1253 11.2823 20.6088 11.9472 20.2764L13.9472 19.2764C14.286 19.107 14.5 18.7607 14.5 18.382V13.2984C14.5 12.3858 15.1317 11.6123 15.9545 11.2177C18.0658 10.2054 19.664 8.29411 20.2531 5.97975C20.5257 4.90932 19.6046 4 18.5 4Z" stroke="url(#paint0_linear_571_5515)" stroke-width="2"/>
<defs>
<linearGradient id="paint0_linear_571_5515" x1="19.9" y1="4" x2="3.52966" y2="20.0077" gradientUnits="userSpaceOnUse">
<stop stop-color="#E60000"/>
<stop offset="1" stop-color="#E69F9F"/>
</linearGradient>
</defs>
</svg>
