<svg width="23" height="22" viewBox="0 0 23 22" fill="none" xmlns="http://www.w3.org/2000/svg">
<path d="M11.5 20.1667C16.5626 20.1667 20.6667 16.0626 20.6667 11C20.6667 5.93739 16.5626 1.83334 11.5 1.83334C6.43738 1.83334 2.33333 5.93739 2.33333 11C2.33333 16.0626 6.43738 20.1667 11.5 20.1667Z" stroke="url(#paint0_linear_286_9868)" stroke-width="1.5" stroke-linecap="round" stroke-linejoin="round"/>
<path d="M14.25 7.33333H11.5M8.75 14.6667H11.5M11.5 14.6667H12.4167C13.4292 14.6667 14.25 13.8459 14.25 12.8333V12.8333C14.25 11.8208 13.4292 11 12.4167 11H10.5833C9.57081 11 8.75 10.1792 8.75 9.16667V9.16667C8.75 8.15414 9.57081 7.33333 10.5833 7.33333H11.5M11.5 14.6667V16.5M11.5 7.33333V5.5" stroke="url(#paint1_linear_286_9868)" stroke-width="1.5" stroke-linecap="round" stroke-linejoin="round"/>
<defs>
<linearGradient id="paint0_linear_286_9868" x1="19.9792" y1="1.83333" x2="2.33333" y2="20.1667" gradientUnits="userSpaceOnUse">
<stop stop-color="#E60000"/>
<stop offset="1" stop-color="#E69F9F"/>
</linearGradient>
<linearGradient id="paint1_linear_286_9868" x1="14.0437" y1="5.5" x2="5.37505" y2="10.0032" gradientUnits="userSpaceOnUse">
<stop stop-color="#E60000"/>
<stop offset="1" stop-color="#E69F9F"/>
</linearGradient>
</defs>
</svg>
