<svg width="23" height="22" viewBox="0 0 23 22" fill="none" xmlns="http://www.w3.org/2000/svg">
<path d="M11.5002 20.1666C16.5628 20.1666 20.6668 16.0626 20.6668 11C20.6668 5.93737 16.5628 1.83331 11.5002 1.83331C6.43755 1.83331 2.3335 5.93737 2.3335 11C2.3335 16.0626 6.43755 20.1666 11.5002 20.1666Z" stroke="#4B4948" stroke-width="1.5" stroke-linecap="round" stroke-linejoin="round"/>
<path d="M14.25 7.33333H11.5M8.75 14.6667H11.5M11.5 14.6667H12.4167C13.4292 14.6667 14.25 13.8459 14.25 12.8333V12.8333C14.25 11.8208 13.4292 11 12.4167 11H10.5833C9.57081 11 8.75 10.1792 8.75 9.16667V9.16667C8.75 8.15414 9.57081 7.33333 10.5833 7.33333H11.5M11.5 14.6667V16.5M11.5 7.33333V5.5" stroke="#4B4948" stroke-width="1.5" stroke-linecap="round" stroke-linejoin="round"/>
</svg>
