<svg width="23" height="22" viewBox="0 0 23 22" fill="none" xmlns="http://www.w3.org/2000/svg">
<path d="M17.9167 20.1666V13.9007C17.9167 12.0435 17.1786 10.2623 15.8649 8.94947L14.2477 7.33331V13.1702C14.2477 14.0609 13.1709 14.5071 12.5408 13.8775L11.496 12.8333C11.0374 12.375 9.93674 12.1 9.20295 12.8333C8.46917 13.5666 8.74434 14.6666 9.20295 15.125L14.2477 20.1666" stroke="#4B4948" stroke-width="1.5" stroke-linecap="round" stroke-linejoin="round"/>
<path d="M10.5833 1.83331L12.25 1.83331C13.3546 1.83331 14.25 2.72874 14.25 3.83331L14.25 5.49998M10.5833 1.83331C10.5833 3.05554 11.3167 5.49998 14.25 5.49998M10.5833 1.83331L8.75 1.83331M14.25 5.49998L14.25 11M5.08333 11L5.08333 12.6666C5.08333 13.7712 5.97876 14.6666 7.08333 14.6666L8.75 14.6666C8.75 13.4444 8.01667 11 5.08333 11ZM5.08333 11L5.08333 5.49998M8.75 1.83331L7.08333 1.83331C5.97876 1.83331 5.08333 2.72874 5.08333 3.83331L5.08333 5.49998M8.75 1.83331C8.75 3.05554 8.01667 5.49998 5.08333 5.49998" stroke="#4B4948" stroke-width="1.5" stroke-linecap="round" stroke-linejoin="round"/>
<ellipse cx="9.66634" cy="8.24998" rx="0.916667" ry="0.916666" transform="rotate(90 9.66634 8.24998)" stroke="#4B4948" stroke-width="1.5" stroke-linecap="round" stroke-linejoin="round"/>
</svg>
