<svg width="17" height="18" viewBox="0 0 17 18" fill="none" xmlns="http://www.w3.org/2000/svg">
<path fill-rule="evenodd" clip-rule="evenodd" d="M5.16666 6.5C5.16666 3.27834 7.77833 0.666667 11 0.666667C14.2217 0.666667 16.8333 3.27834 16.8333 6.5C16.8333 9.72166 14.2217 12.3333 11 12.3333C10.59 12.3333 10.1891 12.2909 9.80184 12.21L8.49999 13.5118C8.18743 13.8244 7.76351 14 7.32148 14H6.83332C6.83332 14.9205 6.08713 15.6667 5.16666 15.6667C5.16666 16.5871 4.42046 17.3333 3.49999 17.3333H1.83332C0.912848 17.3333 0.166656 16.5871 0.166656 15.6667V13.5118C0.166656 13.0698 0.342251 12.6459 0.654812 12.3333L5.29 7.69815C5.20909 7.31089 5.16666 6.91003 5.16666 6.5ZM11 3.83333C10.4477 3.83333 9.99999 4.28105 9.99999 4.83333C9.99999 5.38562 10.4477 5.83333 11 5.83333C11.3682 5.83333 11.6667 6.13181 11.6667 6.5C11.6667 7.05228 12.1144 7.5 12.6667 7.5C13.2189 7.5 13.6667 7.05228 13.6667 6.5C13.6667 5.02724 12.4727 3.83333 11 3.83333Z" fill="white"/>
</svg>
