<svg width="21" height="20" viewBox="0 0 21 20" fill="none" xmlns="http://www.w3.org/2000/svg">
<path d="M10.5881 0C5.02554 0 0.5 4.486 0.5 10C0.5 15.514 5.02554 20 10.5881 20C16.1508 20 20.6763 15.514 20.6763 10C20.6763 4.486 16.1508 0 10.5881 0ZM14.9064 10.5305L11.8799 13.5305C11.7321 13.677 11.5385 13.75 11.3448 13.75C11.1511 13.75 10.9574 13.677 10.8096 13.5305C10.514 13.238 10.514 12.7625 10.8096 12.47L12.5442 10.7505H6.80509C6.38694 10.7505 6.04848 10.415 6.04848 10.0005C6.04848 9.586 6.38694 9.2505 6.80509 9.2505H12.5447L10.8101 7.531C10.5145 7.2385 10.5145 6.763 10.8101 6.4705C11.1057 6.1775 11.5844 6.1775 11.8799 6.4705L14.9064 9.4705C15.2015 9.7625 15.2015 10.2375 14.9064 10.5305Z" fill="url(#paint0_linear_1478_9480)"/>
<defs>
<linearGradient id="paint0_linear_1478_9480" x1="19.9197" y1="-9.67644e-07" x2="0.676878" y2="20.1688" gradientUnits="userSpaceOnUse">
<stop stop-color="#E60000"/>
<stop offset="1" stop-color="#E69F9F"/>
</linearGradient>
</defs>
</svg>
