<svg width="24" height="24" viewBox="0 0 24 24" fill="none" xmlns="http://www.w3.org/2000/svg">
<path d="M20 21V19C20 16.7909 18.2091 15 16 15H15C14.4477 15 14 14.5523 14 14V9C14 7.89543 13.1046 7 12 7V7C10.8954 7 10 7.89543 10 9V18L7.6 14.8C7.22229 14.2964 6.62951 14 6 14H5.56619C4.70121 14 4 14.7012 4 15.5662V15.5662C4 15.8501 4.07715 16.1286 4.22319 16.372L7 21" stroke="url(#paint0_linear_835_1932)" stroke-width="2" stroke-linecap="round" stroke-linejoin="round"/>
<path d="M12 4V3" stroke="url(#paint1_linear_835_1932)" stroke-width="2" stroke-linecap="round" stroke-linejoin="round"/>
<path d="M18 10L19 10" stroke="url(#paint2_linear_835_1932)" stroke-width="2" stroke-linecap="round" stroke-linejoin="round"/>
<path d="M5 10L6 10" stroke="url(#paint3_linear_835_1932)" stroke-width="2" stroke-linecap="round" stroke-linejoin="round"/>
<path d="M7.34334 5.34309L6.63623 4.63599" stroke="url(#paint4_linear_835_1932)" stroke-width="2" stroke-linecap="round" stroke-linejoin="round"/>
<path d="M16.6567 5.34309L17.3638 4.63599" stroke="url(#paint5_linear_835_1932)" stroke-width="2" stroke-linecap="round" stroke-linejoin="round"/>
<defs>
<linearGradient id="paint0_linear_835_1932" x1="19.4" y1="7" x2="6.11164" y2="22.7784" gradientUnits="userSpaceOnUse">
<stop stop-color="#E60000"/>
<stop offset="1" stop-color="#E69F9F"/>
</linearGradient>
<linearGradient id="paint1_linear_835_1932" x1="12.9625" y1="3" x2="12" y2="4" gradientUnits="userSpaceOnUse">
<stop stop-color="#E60000"/>
<stop offset="1" stop-color="#E69F9F"/>
</linearGradient>
<linearGradient id="paint2_linear_835_1932" x1="19" y1="10.9625" x2="18" y2="10" gradientUnits="userSpaceOnUse">
<stop stop-color="#E60000"/>
<stop offset="1" stop-color="#E69F9F"/>
</linearGradient>
<linearGradient id="paint3_linear_835_1932" x1="6" y1="10.9625" x2="5" y2="10" gradientUnits="userSpaceOnUse">
<stop stop-color="#E60000"/>
<stop offset="1" stop-color="#E69F9F"/>
</linearGradient>
<linearGradient id="paint4_linear_835_1932" x1="7.31682" y1="3.9554" x2="7.34334" y2="5.34309" gradientUnits="userSpaceOnUse">
<stop stop-color="#E60000"/>
<stop offset="1" stop-color="#E69F9F"/>
</linearGradient>
<linearGradient id="paint5_linear_835_1932" x1="18.0444" y1="5.31658" x2="16.6567" y2="5.34309" gradientUnits="userSpaceOnUse">
<stop stop-color="#E60000"/>
<stop offset="1" stop-color="#E69F9F"/>
</linearGradient>
</defs>
</svg>
