<svg width="23" height="22" viewBox="0 0 23 22" fill="none" xmlns="http://www.w3.org/2000/svg">
<path d="M19.75 6.41667C19.75 8.44171 16.0563 10.0833 11.5 10.0833C6.94365 10.0833 3.25 8.44171 3.25 6.41667M19.75 6.41667C19.75 4.39162 16.0563 2.75 11.5 2.75C6.94365 2.75 3.25 4.39162 3.25 6.41667M19.75 6.41667V11M3.25 6.41667V11M19.75 11C19.75 13.025 16.0563 14.6667 11.5 14.6667C6.94365 14.6667 3.25 13.025 3.25 11M19.75 11V15.5833C19.75 17.6084 16.0563 19.25 11.5 19.25C6.94365 19.25 3.25 17.6084 3.25 15.5833V11" stroke="#4B4948" stroke-width="1.5" stroke-linecap="round" stroke-linejoin="round"/>
</svg>
