<svg width="25" height="24" viewBox="0 0 25 24" fill="none" xmlns="http://www.w3.org/2000/svg">
<g clip-path="url(#clip0_1199_9464)">
<path d="M10.75 3C6.75482 3 3.5 6.25482 3.5 10.25C3.5 14.2452 6.75482 17.5 10.75 17.5C12.4782 17.5 14.0669 16.8895 15.3145 15.875L20.2197 20.7803C20.2888 20.8523 20.3716 20.9097 20.4632 20.9493C20.5548 20.9889 20.6534 21.0098 20.7532 21.0108C20.8529 21.0118 20.9519 20.9929 21.0443 20.9552C21.1367 20.9175 21.2206 20.8617 21.2912 20.7912C21.3617 20.7206 21.4175 20.6367 21.4552 20.5443C21.4929 20.4519 21.5118 20.3529 21.5108 20.2532C21.5098 20.1534 21.4889 20.0548 21.4493 19.9632C21.4097 19.8716 21.3523 19.7888 21.2803 19.7197L16.375 14.8145C17.3895 13.5669 18 11.9782 18 10.25C18 6.25482 14.7452 3 10.75 3ZM10.75 4.5C13.9345 4.5 16.5 7.06548 16.5 10.25C16.5 11.8013 15.8881 13.2029 14.8955 14.2354C14.8343 14.2803 14.7803 14.3343 14.7354 14.3955C13.7029 15.3881 12.3013 16 10.75 16C7.56548 16 5 13.4345 5 10.25C5 7.06548 7.56548 4.5 10.75 4.5Z" fill="url(#paint0_linear_1199_9464)"/>
</g>
<defs>
<linearGradient id="paint0_linear_1199_9464" x1="20.8354" y1="3" x2="3.5" y2="21.0109" gradientUnits="userSpaceOnUse">
<stop stop-color="#E60000"/>
<stop offset="1" stop-color="#E69F9F"/>
</linearGradient>
<clipPath id="clip0_1199_9464">
<rect width="24" height="24" fill="white" transform="translate(0.5)"/>
</clipPath>
</defs>
</svg>
